<svg xmlns="http://www.w3.org/2000/svg" xmlns:xlink="http://www.w3.org/1999/xlink" width="500" zoomAndPan="magnify" viewBox="0 0 375 225" height="300" preserveAspectRatio="xMidYMid meet" version="1.0"><defs><g/><clipPath id="8cc66588bb"><path d="M 80 70.363281 L 98 70.363281 L 98 84 L 80 84 Z M 80 70.363281 " clip-rule="nonzero"/></clipPath><clipPath id="4851534f8f"><path d="M 65 141.550781 L 82.585938 141.550781 L 82.585938 154.171875 L 65 154.171875 Z M 65 141.550781 " clip-rule="nonzero"/></clipPath></defs><path fill="#fbfff6" d="M 109.789062 81.804688 L 90.019531 91.34375 C 85.21875 93.660156 82.664062 98.703125 83.21875 103.714844 L 113.347656 89.183594 C 115.359375 88.210938 117.789062 89.058594 118.757812 91.070312 L 121.449219 96.648438 C 122.417969 98.660156 121.570312 101.085938 119.558594 102.058594 L 89.429688 116.589844 C 93.007812 120.148438 98.542969 121.289062 103.347656 118.972656 L 123.117188 109.433594 C 129.207031 106.496094 131.761719 99.179688 128.824219 93.089844 L 126.136719 87.511719 C 123.199219 81.421875 115.878906 78.867188 109.789062 81.804688 Z M 44.191406 133.917969 L 41.5 128.339844 C 40.53125 126.328125 41.378906 123.898438 43.390625 122.929688 L 73.519531 108.394531 C 69.941406 104.839844 64.40625 103.699219 59.605469 106.015625 L 39.832031 115.554688 C 33.742188 118.492188 31.1875 125.808594 34.125 131.898438 L 36.816406 137.472656 C 39.753906 143.566406 47.070312 146.121094 53.160156 143.183594 L 72.933594 133.644531 C 77.734375 131.328125 80.289062 126.285156 79.730469 121.269531 L 49.601562 135.804688 C 47.589844 136.777344 45.160156 135.929688 44.191406 133.917969 " fill-opacity="1" fill-rule="nonzero"/><path fill="#fbfff6" d="M 102.546875 103.546875 C 102.941406 104.363281 102.996094 105.304688 102.695312 106.160156 C 102.394531 107.015625 101.769531 107.71875 100.953125 108.113281 L 65.925781 125.011719 C 65.105469 125.40625 64.167969 125.457031 63.3125 125.160156 C 62.453125 124.859375 61.753906 124.234375 61.359375 123.417969 L 60.402344 121.4375 C 59.585938 119.738281 60.296875 117.695312 62 116.875 L 97.027344 99.976562 C 98.726562 99.15625 100.773438 99.871094 101.59375 101.570312 L 102.546875 103.546875 " fill-opacity="1" fill-rule="nonzero"/><path fill="#fbfff6" d="M 47.746094 107.367188 C 47.503906 107.484375 47.222656 107.527344 46.9375 107.472656 C 46.222656 107.34375 45.753906 106.660156 45.882812 105.945312 C 47.980469 94.601562 55.402344 84.851562 65.734375 79.867188 C 72.621094 76.546875 80.230469 75.5 87.738281 76.839844 C 88.453125 76.96875 88.929688 77.648438 88.800781 78.363281 C 88.675781 79.074219 87.988281 79.546875 87.277344 79.425781 C 80.316406 78.179688 73.261719 79.152344 66.875 82.230469 C 57.296875 86.855469 50.414062 95.898438 48.46875 106.421875 C 48.386719 106.847656 48.109375 107.191406 47.746094 107.367188 " fill-opacity="1" fill-rule="nonzero"/><g clip-path="url(#8cc66588bb)"><path fill="#fbfff6" d="M 84.550781 70.363281 L 85.257812 77.726562 L 80.445312 83.347656 L 97.886719 81.71875 L 84.550781 70.363281 " fill-opacity="1" fill-rule="nonzero"/></g><path fill="#fbfff6" d="M 97.214844 145.121094 C 90.332031 148.441406 82.726562 149.488281 75.210938 148.148438 C 74.5 148.019531 74.023438 147.339844 74.148438 146.625 C 74.277344 145.914062 74.957031 145.441406 75.671875 145.5625 C 82.636719 146.804688 89.691406 145.835938 96.074219 142.757812 C 105.65625 138.132812 112.535156 129.089844 114.484375 118.566406 C 114.617188 117.851562 115.300781 117.382812 116.015625 117.515625 C 116.726562 117.648438 117.199219 118.332031 117.066406 119.046875 C 114.96875 130.390625 107.546875 140.136719 97.214844 145.121094 " fill-opacity="1" fill-rule="nonzero"/><g clip-path="url(#4851534f8f)"><path fill="#fbfff6" d="M 78.398438 154.625 L 77.695312 147.261719 L 82.503906 141.640625 L 65.066406 143.269531 L 78.398438 154.625 " fill-opacity="1" fill-rule="nonzero"/></g><g fill="#f8fbfd" fill-opacity="1"><g transform="translate(131.789042, 118.298276)"><g><path d="M 28.953125 -15.4375 C 28.953125 -10.445312 27.53125 -6.625 24.6875 -3.96875 C 21.851562 -1.320312 17.753906 0 12.390625 0 L 3.8125 0 L 3.8125 -30.3125 L 13.328125 -30.3125 C 18.273438 -30.3125 22.113281 -29.003906 24.84375 -26.390625 C 27.582031 -23.773438 28.953125 -20.125 28.953125 -15.4375 Z M 22.28125 -15.28125 C 22.28125 -21.789062 19.40625 -25.046875 13.65625 -25.046875 L 10.234375 -25.046875 L 10.234375 -5.3125 L 13 -5.3125 C 19.1875 -5.3125 22.28125 -8.632812 22.28125 -15.28125 Z M 22.28125 -15.28125 "/></g></g></g><g fill="#f8fbfd" fill-opacity="1"><g transform="translate(163.215004, 118.298276)"><g><path d="M 22.359375 0 L 20.171875 -7.21875 L 9.125 -7.21875 L 6.921875 0 L 0 0 L 10.703125 -30.4375 L 18.546875 -30.4375 L 29.296875 0 Z M 18.640625 -12.609375 C 16.609375 -19.140625 15.460938 -22.832031 15.203125 -23.6875 C 14.953125 -24.550781 14.769531 -25.226562 14.65625 -25.71875 C 14.195312 -23.957031 12.890625 -19.585938 10.734375 -12.609375 Z M 18.640625 -12.609375 "/></g></g></g><g fill="#f8fbfd" fill-opacity="1"><g transform="translate(192.50583, 118.298276)"><g><path d="M 30.703125 0 L 22.53125 0 L 9.34375 -22.921875 L 9.15625 -22.921875 C 9.425781 -18.878906 9.5625 -15.992188 9.5625 -14.265625 L 9.5625 0 L 3.8125 0 L 3.8125 -30.3125 L 11.921875 -30.3125 L 25.078125 -7.609375 L 25.234375 -7.609375 C 25.023438 -11.546875 24.921875 -14.332031 24.921875 -15.96875 L 24.921875 -30.3125 L 30.703125 -30.3125 Z M 30.703125 0 "/></g></g></g><g fill="#f8fbfd" fill-opacity="1"><g transform="translate(227.020498, 118.298276)"><g><path d="M 3.8125 0 L 3.8125 -30.3125 L 10.234375 -30.3125 L 10.234375 0 Z M 3.8125 0 "/></g></g></g><g fill="#f8fbfd" fill-opacity="1"><g transform="translate(241.075117, 118.298276)"><g><path d="M 21.265625 0 L 3.8125 0 L 3.8125 -30.3125 L 21.265625 -30.3125 L 21.265625 -25.046875 L 10.234375 -25.046875 L 10.234375 -18.390625 L 20.5 -18.390625 L 20.5 -13.125 L 10.234375 -13.125 L 10.234375 -5.3125 L 21.265625 -5.3125 Z M 21.265625 0 "/></g></g></g><g fill="#f8fbfd" fill-opacity="1"><g transform="translate(264.851889, 118.298276)"><g><path d="M 3.8125 0 L 3.8125 -30.3125 L 10.234375 -30.3125 L 10.234375 -5.3125 L 22.53125 -5.3125 L 22.53125 0 Z M 3.8125 0 "/></g></g></g><g fill="#f8fbfd" fill-opacity="1"><g transform="translate(133.981254, 140.195906)"><g><path d="M 3.796875 0 L 1.4375 0 L 1.4375 -11.359375 L 7.953125 -11.359375 L 7.953125 -9.390625 L 3.796875 -9.390625 L 3.796875 -6.453125 L 7.65625 -6.453125 L 7.65625 -4.5 L 3.796875 -4.5 Z M 3.796875 0 "/></g></g></g><g fill="#f8fbfd" fill-opacity="1"><g transform="translate(142.710564, 140.195906)"><g><path d="M 10.6875 -11.359375 L 10.6875 -4.015625 C 10.6875 -3.171875 10.492188 -2.429688 10.109375 -1.796875 C 9.734375 -1.171875 9.191406 -0.6875 8.484375 -0.34375 C 7.773438 -0.0078125 6.9375 0.15625 5.96875 0.15625 C 4.507812 0.15625 3.375 -0.21875 2.5625 -0.96875 C 1.757812 -1.71875 1.359375 -2.742188 1.359375 -4.046875 L 1.359375 -11.359375 L 3.75 -11.359375 L 3.75 -4.40625 C 3.75 -3.53125 3.925781 -2.882812 4.28125 -2.46875 C 4.632812 -2.0625 5.21875 -1.859375 6.03125 -1.859375 C 6.820312 -1.859375 7.394531 -2.066406 7.75 -2.484375 C 8.101562 -2.898438 8.28125 -3.546875 8.28125 -4.421875 L 8.28125 -11.359375 Z M 10.6875 -11.359375 "/></g></g></g><g fill="#f8fbfd" fill-opacity="1"><g transform="translate(154.73278, 140.195906)"><g><path d="M 1.4375 0 L 1.4375 -11.359375 L 3.84375 -11.359375 L 3.84375 -1.984375 L 8.453125 -1.984375 L 8.453125 0 Z M 1.4375 0 "/></g></g></g><g fill="#f8fbfd" fill-opacity="1"><g transform="translate(163.718377, 140.195906)"><g><path d="M 1.4375 0 L 1.4375 -11.359375 L 3.84375 -11.359375 L 3.84375 -1.984375 L 8.453125 -1.984375 L 8.453125 0 Z M 1.4375 0 "/></g></g></g><g fill="#f8fbfd" fill-opacity="1"><g transform="translate(172.703973, 140.195906)"><g><path d="M 8.140625 -3.15625 C 8.140625 -2.125 7.769531 -1.3125 7.03125 -0.71875 C 6.289062 -0.132812 5.265625 0.15625 3.953125 0.15625 C 2.734375 0.15625 1.660156 -0.0703125 0.734375 -0.53125 L 0.734375 -2.765625 C 1.492188 -2.421875 2.140625 -2.175781 2.671875 -2.03125 C 3.203125 -1.894531 3.691406 -1.828125 4.140625 -1.828125 C 4.660156 -1.828125 5.0625 -1.925781 5.34375 -2.125 C 5.632812 -2.332031 5.78125 -2.640625 5.78125 -3.046875 C 5.78125 -3.265625 5.71875 -3.457031 5.59375 -3.625 C 5.46875 -3.800781 5.285156 -3.96875 5.046875 -4.125 C 4.804688 -4.289062 4.3125 -4.550781 3.5625 -4.90625 C 2.875 -5.226562 2.351562 -5.539062 2 -5.84375 C 1.65625 -6.144531 1.378906 -6.492188 1.171875 -6.890625 C 0.960938 -7.296875 0.859375 -7.765625 0.859375 -8.296875 C 0.859375 -9.296875 1.195312 -10.082031 1.875 -10.65625 C 2.5625 -11.238281 3.507812 -11.53125 4.71875 -11.53125 C 5.300781 -11.53125 5.859375 -11.457031 6.390625 -11.3125 C 6.929688 -11.175781 7.492188 -10.984375 8.078125 -10.734375 L 7.3125 -8.859375 C 6.695312 -9.109375 6.191406 -9.28125 5.796875 -9.375 C 5.398438 -9.476562 5.015625 -9.53125 4.640625 -9.53125 C 4.179688 -9.53125 3.828125 -9.421875 3.578125 -9.203125 C 3.335938 -8.992188 3.21875 -8.71875 3.21875 -8.375 C 3.21875 -8.15625 3.265625 -7.96875 3.359375 -7.8125 C 3.460938 -7.65625 3.617188 -7.503906 3.828125 -7.359375 C 4.046875 -7.210938 4.554688 -6.945312 5.359375 -6.5625 C 6.421875 -6.050781 7.148438 -5.539062 7.546875 -5.03125 C 7.941406 -4.519531 8.140625 -3.894531 8.140625 -3.15625 Z M 8.140625 -3.15625 "/></g></g></g><g fill="#f8fbfd" fill-opacity="1"><g transform="translate(181.464348, 140.195906)"><g><path d="M 5.8125 0 L 3.40625 0 L 3.40625 -9.359375 L 0.3125 -9.359375 L 0.3125 -11.359375 L 8.90625 -11.359375 L 8.90625 -9.359375 L 5.8125 -9.359375 Z M 5.8125 0 "/></g></g></g><g fill="#f8fbfd" fill-opacity="1"><g transform="translate(190.675167, 140.195906)"><g><path d="M 8.390625 0 L 7.5625 -2.703125 L 3.421875 -2.703125 L 2.59375 0 L 0 0 L 4.015625 -11.40625 L 6.953125 -11.40625 L 10.984375 0 Z M 6.984375 -4.734375 C 6.222656 -7.179688 5.796875 -8.566406 5.703125 -8.890625 C 5.609375 -9.210938 5.539062 -9.460938 5.5 -9.640625 C 5.320312 -8.984375 4.832031 -7.347656 4.03125 -4.734375 Z M 6.984375 -4.734375 "/></g></g></g><g fill="#f8fbfd" fill-opacity="1"><g transform="translate(201.648934, 140.195906)"><g><path d="M 6.265625 -9.53125 C 5.347656 -9.53125 4.640625 -9.1875 4.140625 -8.5 C 3.648438 -7.820312 3.40625 -6.875 3.40625 -5.65625 C 3.40625 -3.113281 4.359375 -1.84375 6.265625 -1.84375 C 7.054688 -1.84375 8.019531 -2.046875 9.15625 -2.453125 L 9.15625 -0.421875 C 8.226562 -0.0351562 7.1875 0.15625 6.03125 0.15625 C 4.375 0.15625 3.109375 -0.34375 2.234375 -1.34375 C 1.359375 -2.351562 0.921875 -3.796875 0.921875 -5.671875 C 0.921875 -6.847656 1.132812 -7.878906 1.5625 -8.765625 C 2 -9.660156 2.617188 -10.34375 3.421875 -10.8125 C 4.234375 -11.289062 5.179688 -11.53125 6.265625 -11.53125 C 7.367188 -11.53125 8.472656 -11.265625 9.578125 -10.734375 L 8.8125 -8.765625 C 8.382812 -8.972656 7.953125 -9.148438 7.515625 -9.296875 C 7.085938 -9.453125 6.671875 -9.53125 6.265625 -9.53125 Z M 6.265625 -9.53125 "/></g></g></g><g fill="#f8fbfd" fill-opacity="1"><g transform="translate(211.783942, 140.195906)"><g><path d="M 10.578125 0 L 7.84375 0 L 4.859375 -4.78125 L 3.84375 -4.0625 L 3.84375 0 L 1.4375 0 L 1.4375 -11.359375 L 3.84375 -11.359375 L 3.84375 -6.171875 L 4.78125 -7.5 L 7.875 -11.359375 L 10.546875 -11.359375 L 6.578125 -6.34375 Z M 10.578125 0 "/></g></g></g><g fill="#f8fbfd" fill-opacity="1"><g transform="translate(222.346096, 140.195906)"><g/></g></g><g fill="#f8fbfd" fill-opacity="1"><g transform="translate(226.477761, 140.195906)"><g><path d="M 10.859375 -5.796875 C 10.859375 -3.921875 10.328125 -2.484375 9.265625 -1.484375 C 8.203125 -0.492188 6.664062 0 4.65625 0 L 1.4375 0 L 1.4375 -11.359375 L 5 -11.359375 C 6.851562 -11.359375 8.289062 -10.867188 9.3125 -9.890625 C 10.34375 -8.910156 10.859375 -7.546875 10.859375 -5.796875 Z M 8.359375 -5.734375 C 8.359375 -8.171875 7.28125 -9.390625 5.125 -9.390625 L 3.84375 -9.390625 L 3.84375 -1.984375 L 4.875 -1.984375 C 7.195312 -1.984375 8.359375 -3.234375 8.359375 -5.734375 Z M 8.359375 -5.734375 "/></g></g></g><g fill="#f8fbfd" fill-opacity="1"><g transform="translate(238.251456, 140.195906)"><g><path d="M 7.96875 0 L 1.4375 0 L 1.4375 -11.359375 L 7.96875 -11.359375 L 7.96875 -9.390625 L 3.84375 -9.390625 L 3.84375 -6.890625 L 7.6875 -6.890625 L 7.6875 -4.921875 L 3.84375 -4.921875 L 3.84375 -1.984375 L 7.96875 -1.984375 Z M 7.96875 0 "/></g></g></g><g fill="#f8fbfd" fill-opacity="1"><g transform="translate(247.15939, 140.195906)"><g><path d="M 7.921875 -11.359375 L 10.34375 -11.359375 L 6.484375 0 L 3.859375 0 L 0 -11.359375 L 2.4375 -11.359375 L 4.578125 -4.609375 C 4.691406 -4.203125 4.8125 -3.734375 4.9375 -3.203125 C 5.0625 -2.671875 5.140625 -2.300781 5.171875 -2.09375 C 5.234375 -2.570312 5.429688 -3.410156 5.765625 -4.609375 Z M 7.921875 -11.359375 "/></g></g></g><g fill="#f8fbfd" fill-opacity="1"><g transform="translate(257.496321, 140.195906)"><g><path d="M 7.96875 0 L 1.4375 0 L 1.4375 -11.359375 L 7.96875 -11.359375 L 7.96875 -9.390625 L 3.84375 -9.390625 L 3.84375 -6.890625 L 7.6875 -6.890625 L 7.6875 -4.921875 L 3.84375 -4.921875 L 3.84375 -1.984375 L 7.96875 -1.984375 Z M 7.96875 0 "/></g></g></g><g fill="#f8fbfd" fill-opacity="1"><g transform="translate(266.404255, 140.195906)"><g><path d="M 1.4375 0 L 1.4375 -11.359375 L 3.84375 -11.359375 L 3.84375 -1.984375 L 8.453125 -1.984375 L 8.453125 0 Z M 1.4375 0 "/></g></g></g><g fill="#f8fbfd" fill-opacity="1"><g transform="translate(275.389852, 140.195906)"><g><path d="M 11.75 -5.703125 C 11.75 -3.816406 11.28125 -2.367188 10.34375 -1.359375 C 9.414062 -0.347656 8.082031 0.15625 6.34375 0.15625 C 4.59375 0.15625 3.25 -0.347656 2.3125 -1.359375 C 1.382812 -2.367188 0.921875 -3.820312 0.921875 -5.71875 C 0.921875 -7.601562 1.390625 -9.046875 2.328125 -10.046875 C 3.265625 -11.046875 4.609375 -11.546875 6.359375 -11.546875 C 8.097656 -11.546875 9.429688 -11.039062 10.359375 -10.03125 C 11.285156 -9.03125 11.75 -7.585938 11.75 -5.703125 Z M 3.453125 -5.703125 C 3.453125 -4.429688 3.691406 -3.472656 4.171875 -2.828125 C 4.648438 -2.179688 5.375 -1.859375 6.34375 -1.859375 C 8.257812 -1.859375 9.21875 -3.140625 9.21875 -5.703125 C 9.21875 -8.265625 8.265625 -9.546875 6.359375 -9.546875 C 5.390625 -9.546875 4.660156 -9.222656 4.171875 -8.578125 C 3.691406 -7.929688 3.453125 -6.972656 3.453125 -5.703125 Z M 3.453125 -5.703125 "/></g></g></g><g fill="#f8fbfd" fill-opacity="1"><g transform="translate(288.048904, 140.195906)"><g><path d="M 3.84375 -6.015625 L 4.640625 -6.015625 C 5.378906 -6.015625 5.929688 -6.160156 6.296875 -6.453125 C 6.660156 -6.742188 6.84375 -7.171875 6.84375 -7.734375 C 6.84375 -8.296875 6.6875 -8.710938 6.375 -8.984375 C 6.070312 -9.253906 5.59375 -9.390625 4.9375 -9.390625 L 3.84375 -9.390625 Z M 9.28125 -7.828125 C 9.28125 -6.597656 8.894531 -5.660156 8.125 -5.015625 C 7.363281 -4.367188 6.28125 -4.046875 4.875 -4.046875 L 3.84375 -4.046875 L 3.84375 0 L 1.4375 0 L 1.4375 -11.359375 L 5.0625 -11.359375 C 6.4375 -11.359375 7.484375 -11.0625 8.203125 -10.46875 C 8.921875 -9.875 9.28125 -8.992188 9.28125 -7.828125 Z M 9.28125 -7.828125 "/></g></g></g><g fill="#f8fbfd" fill-opacity="1"><g transform="translate(298.036352, 140.195906)"><g><path d="M 7.96875 0 L 1.4375 0 L 1.4375 -11.359375 L 7.96875 -11.359375 L 7.96875 -9.390625 L 3.84375 -9.390625 L 3.84375 -6.890625 L 7.6875 -6.890625 L 7.6875 -4.921875 L 3.84375 -4.921875 L 3.84375 -1.984375 L 7.96875 -1.984375 Z M 7.96875 0 "/></g></g></g><g fill="#f8fbfd" fill-opacity="1"><g transform="translate(306.944286, 140.195906)"><g><path d="M 3.84375 -6.328125 L 4.625 -6.328125 C 5.382812 -6.328125 5.941406 -6.453125 6.296875 -6.703125 C 6.660156 -6.953125 6.84375 -7.351562 6.84375 -7.90625 C 6.84375 -8.4375 6.65625 -8.816406 6.28125 -9.046875 C 5.914062 -9.273438 5.347656 -9.390625 4.578125 -9.390625 L 3.84375 -9.390625 Z M 3.84375 -4.359375 L 3.84375 0 L 1.4375 0 L 1.4375 -11.359375 L 4.75 -11.359375 C 6.289062 -11.359375 7.429688 -11.078125 8.171875 -10.515625 C 8.910156 -9.953125 9.28125 -9.101562 9.28125 -7.96875 C 9.28125 -7.289062 9.09375 -6.691406 8.71875 -6.171875 C 8.351562 -5.648438 7.835938 -5.242188 7.171875 -4.953125 C 8.878906 -2.398438 9.992188 -0.75 10.515625 0 L 7.84375 0 L 5.125 -4.359375 Z M 3.84375 -4.359375 "/></g></g></g></svg>